<svg version="1.1" id="Layer_1" xmlns="http://www.w3.org/2000/svg" xmlns:xlink="http://www.w3.org/1999/xlink" x="0px" y="0px" viewBox="0 0 500 500" style="width: 166px;" xml:space="preserve" data-imageid="polaroid-69" imageName="Polaroid" class="illustrations_image">
<style type="text/css">
	.st0_polaroid-69{fill:#E7D2CA;}
	.st1_polaroid-69{fill:url(#SVGID_1_);}
	.st2_polaroid-69{fill:#633B14;}
	.st3_polaroid-69{opacity:0.2;fill:#FFFFFF;enable-background:new    ;}
	.st4_polaroid-69{fill:#68E1FD;}
	.st5_polaroid-69{opacity:0.43;fill:#272727;enable-background:new    ;}
	.st6_polaroid-69{opacity:0.36;fill:#FFFFFF;enable-background:new    ;}
	.st7_polaroid-69{fill:#272727;}
	.st8_polaroid-69{fill:#4F4F51;}
	.st9_polaroid-69{fill:#FF6161;}
	.st10_polaroid-69{opacity:0.5;fill:#272727;enable-background:new    ;}
	.st11_polaroid-69{fill:#49B230;}
	.st12_polaroid-69{fill:#F7931E;}
	.st13_polaroid-69{fill:#FFFFFF;}
	.st14_polaroid-69{fill:url(#SVGID_00000093863633947048756690000007089264345840409248_);}
	.st15_polaroid-69{fill:#66C652;}
	.st16_polaroid-69{opacity:0.7;fill:#272727;enable-background:new    ;}
	.st17_polaroid-69{fill:url(#SVGID_00000077301747329860660200000002358557565241767066_);}
</style>
<path id="field_polaroid-69" class="st0_polaroid-69" d="M479.9,269.2c4.9-2.8,6.6-9.1,3.8-14c-0.9-1.6-2.2-2.9-3.8-3.8L264.8,127.8&#10;&#9;c-8.4-4.8-18.8-4.8-27.1,0.1L20.1,254.2c-4.9,2.8-6.6,9.1-3.7,14c0.9,1.6,2.2,2.8,3.7,3.7l212.2,122.7c9.3,5.4,20.7,5.4,30,0&#10;&#9;L479.9,269.2z"/>
<g id="polaroid_polaroid-69">
	
		<linearGradient id="SVGID_1_-polaroid-69" gradientUnits="userSpaceOnUse" x1="172.174" y1="-666.6077" x2="137.244" y2="-603.9377" gradientTransform="matrix(1 0 0 1 0 896.12)">
		<stop offset="0" style="stop-color:#633B14"/>
		<stop offset="1" style="stop-color:#E7D2CA"/>
	</linearGradient>
	<path class="st1_polaroid-69" d="M147.9,338.3l75.6-46.9l-91.7-51.6l-78.3,48.7C58.5,290.8,142.8,336.2,147.9,338.3z"/>
	<path class="st2_polaroid-69" d="M248.7,129.8c0,0,13.1,10.7,28.9,4.6s27.7-13.1,27.9-14s1.5-8.1,1.5-8.1s0-3.8,2.4-2.7s30.5,16.9,31,17.2&#10;&#9;&#9;s2.1,0,2.2,5s0,19.2,0,19.2s0.5,1.7-1.5,1.8s-12.9-3.4-12.9-3.4s-14.9,7.6-17,10.1s-3.8,4.5,0.9,10.5S248.7,129.8,248.7,129.8z"/>
	<path class="st2_polaroid-69" d="M342.8,132.9c-0.1-2.8-0.6-3.9-1.1-4.4c-18,9.4-36.4,18.1-53.9,28.4c14.3,9.3,26.6,17,24.5,14.3&#10;&#9;&#9;c-4.6-6-2.9-7.9-0.9-10.5s17-10.1,17-10.1s10.8,3.4,12.9,3.3s1.5-1.8,1.5-1.8S343,137.8,342.8,132.9z"/>
	<path class="st2_polaroid-69" d="M343.9,190.4L297,157.8l-97.4-56.4l-35.7,20.9c0.9,1.9,1.4,4,1.3,6.2v40.5c0,7.7-5.2,11.9-11.1,12.8&#10;&#9;&#9;c-1.3,3-1.4,5.4-2.3,9c-2,7.1-9.4,11.3-16.5,9.4h-0.1l-2.9,7.9v31.5l91.3,52l122-70.3L343.9,190.4z"/>
	<polygon class="st2_polaroid-69" points="266.9,175.7 297,157.7 199.6,101.3 163.4,122.5 261.3,178.7 &#9;"/>
	<path class="st3_polaroid-69" d="M342.7,131.8c-0.2-5-1.7-4.6-2.2-5s-28.6-16.1-31-17.2s-2.4,2.7-2.4,2.7s-1.4,7.2-1.5,8.1s-12,7.9-27.9,14&#10;&#9;&#9;c-7.3,2.7-15.3,2.4-22.4-0.9l-55.7-32.3l-36.2,21.2l97.9,56.2l5.6-3.1l26.9-16c11.5,7.4,20.2,12.7,18.5,10.4&#10;&#9;&#9;c-4.6-6-2.9-7.9-0.9-10.5s17-10.1,17-10.1s10.8,3.5,12.9,3.4s1.5-1.8,1.5-1.8S342.9,136.8,342.7,131.8z"/>
	<path class="st4_polaroid-69 targetColor" d="M170,119.1l-6.6,3.4v43.2c0,0-1.5,4.2-10.1,12.5s-21,19.7-21,19.7v10.1l91.6,52.1l43-22.8v-61.5L170,119.1z" style="fill: rgb(104, 225, 253);"/>
	<polygon class="st5_polaroid-69" points="163.4,165.6 163.4,122.5 261.3,178.7 261.3,223.4 &#9;"/>
	<polyline class="st6_polaroid-69" points="239.5,175.7 235.1,173.3 235.1,191 255.5,202.7 255.5,197.8 &#9;"/>
	<polygon class="st7_polaroid-69" points="239.5,175.7 239.5,188.7 255.5,197.8 255.5,185.4 &#9;"/>
	<path class="st7_polaroid-69" d="M234.4,207.1c0,0,6.7-5.1,7.8-5.9c0,0,7.3,1.6,7.3,12.5l-7.4,3.7"/>
	<ellipse transform="matrix(0.8276 -0.5614 0.5614 0.8276 -77.8847 170.4475)" class="st8_polaroid-69" cx="238.5" cy="212" rx="3.8" ry="6.4"/>
	<path class="st9_polaroid-69" d="M173.8,166.1c0.9-0.6,1.9-1.2,2.9-1.6c0.8-0.1,3.8-0.3,7,5c2.9,4.8,0.1,8.3,0.1,8.3l-2.2,1.4"/>
	<path class="st10_polaroid-69" d="M173.8,166.1c0.9-0.6,1.9-1.2,2.9-1.6c0.8-0.1,3.8-0.3,7,5c2.9,4.8,0.1,8.3,0.1,8.3l-2.2,1.4"/>
	<ellipse transform="matrix(0.8397 -0.543 0.543 0.8397 -65.1602 124.3156)" class="st9_polaroid-69" cx="178" cy="172.5" rx="4.8" ry="7.6"/>
	<polygon class="st9_polaroid-69" points="199.7,187.1 165.6,217.4 172.3,221.2 205.9,190.2 &#9;"/>
	<polygon class="st11_polaroid-69" points="205.6,190.4 172.3,221.2 179,225.1 211.4,193.9 &#9;"/>
	<polygon class="st12_polaroid-69" points="211.3,193.7 178.9,225.1 185.6,228.9 216.9,197 &#9;"/>
	<polyline class="st7_polaroid-69" points="189.3,160.7 196.5,152.8 223.9,198.9 212.9,201.6 &#9;"/>
	<ellipse transform="matrix(0.866 -0.5 0.5 0.866 -59.0259 129.3493)" class="st7_polaroid-69" cx="211.9" cy="174.8" rx="15.4" ry="27.1"/>
	<ellipse transform="matrix(0.866 -0.5 0.5 0.866 -63.6289 124.8246)" class="st8_polaroid-69" cx="201.1" cy="181.1" rx="13.8" ry="23.6"/>
	<ellipse transform="matrix(0.866 -0.5 0.5 0.866 -64.3158 124.5286)" class="st7_polaroid-69" cx="200.2" cy="182.3" rx="9.6" ry="14.8"/>
	<ellipse transform="matrix(0.866 -0.5 0.5 0.866 -63.6289 124.8246)" class="st7_polaroid-69" cx="201.1" cy="181.1" rx="8.3" ry="14.2"/>
	<path class="st5_polaroid-69" d="M132.3,197.8l91.6,52.7v9.5c0,0-91.6-50.8-91.6-52.1V197.8z"/>
	<polygon class="st6_polaroid-69" points="261.3,178.7 261.3,223.4 223.9,250.5 223.9,260 266.9,237.1 266.9,175.7 &#9;"/>
	<polygon class="st7_polaroid-69" points="140.7,221.2 213.3,263.4 213.3,268.6 140.2,226.7 &#9;"/>
	<polygon class="st13_polaroid-69" points="204,258 141.1,314.2 87.9,284.4 151.8,227.7 &#9;"/>
	<polygon class="st8_polaroid-69" points="151.8,227.7 149.4,229.7 201.9,260 204,258 &#9;"/>
	<path class="st4_polaroid-69 targetColor" d="M143.7,240.3l-45.3,40.2l46.2,26l44-40.3C173.6,257.7,158.8,248.8,143.7,240.3z" style="fill: rgb(104, 225, 253);"/>
	<path class="st5_polaroid-69" d="M133.3,249.6c-1.1,1-5.4,17.7-3.6,19.1c1.9,1.6,17.1-5.9,18.4-4.3s-1.9,19.9,1.4,21.5c4,2,24.4-6.1,24.4-6.1&#10;&#9;&#9;l14.9-13.6l-45-25.8L133.3,249.6z"/>
	<circle class="st13_polaroid-69" cx="136.2" cy="280.3" r="7"/>
</g>
<g id="person_polaroid-69">
	
		<linearGradient id="SVGID_00000102515144394022939300000014860164096980765374_-polaroid-69" gradientUnits="userSpaceOnUse" x1="-186.0294" y1="-600.9074" x2="-246.3694" y2="-568.3874" gradientTransform="matrix(1 0 0 1 543.22 896.12)">
		<stop offset="0" style="stop-color:#633B14"/>
		<stop offset="1" style="stop-color:#E7D2CA"/>
	</linearGradient>
	<path style="fill:url(#SVGID_00000102515144394022939300000014860164096980765374_);" d="M289,343.5l54.2-33.2l-15.3-10.8&#10;&#9;&#9;l-55.6,37.4C277.7,339.5,283.5,341.2,289,343.5z"/>
	<path class="st9_polaroid-69" d="M318.1,303.3c0,0.2-4.2,9.9-5.2,10.5s-3.9-1.4-4.9-0.2s-2.3,3.3-0.1,4.3s8.8,1.8,10,1.3&#10;&#9;&#9;c1.2-0.6,2.3-1.4,3.3-2.2c0,0,0.6-5.2,1.4-4.5s0.4,6.3,0.9,6.5c0.7,0,1.3-0.1,1.9-0.3l-0.6-16.3"/>
	<path class="st9_polaroid-69" d="M336.4,294.6c0,0.2-4.6,9.7-5.6,10.3s-3.8-1.4-4.9-0.4s-2.4,3.2-0.2,4.3s8.8,2.1,10,1.7&#10;&#9;&#9;c1.2-0.6,2.3-1.3,3.4-2.1c0,0,0.8-5.1,1.5-4.4s0.2,6.3,0.7,6.5c0.7,0,1.3,0,1.9-0.2v-16.3"/>
	<path class="st7_polaroid-69" d="M320.3,214.6c0,0-13.4,69.1-12.4,85.2c0,0,2.7,10.8,25.9,7.1c0,0,2-8.1,1.1-21.6s-3.3-70.7-3.3-70.7H320.3z"/>
	<path class="st7_polaroid-69" d="M322.8,296.3l3.5-82.5l13.9-1.3c0,0,6.1,21.3,4.8,31.5s1.6,23.9,2.2,31c0.6,6.4,0.9,17.5-1.4,22.4&#10;&#9;&#9;C338.2,299.4,330.2,299,322.8,296.3z"/>
	<path class="st13_polaroid-69" d="M334.8,303c1.1-5.2,1.9-10.4,2.3-15.6c0.2-2.6,0.2-5.2,0-7.7c-0.2-2.7-0.6-5.3-1.1-7.9&#10;&#9;&#9;c-0.8-4.7-1-9.5-0.6-14.2c0.4-4.9,1.1-9.7,1.6-14.5c0.7-5.5,0.5-11-0.5-16.4c-0.2-0.7,0.9-1,1.1-0.3c2.1,9.7,0.1,19.5-0.8,29.2&#10;&#9;&#9;c-0.6,5-0.5,10.1,0.3,15.1c0.4,2.5,0.9,4.9,1.2,7.3c0.3,2.6,0.3,5.3,0.2,7.9c-0.4,5.9-1.2,11.7-2.5,17.5&#10;&#9;&#9;C335.7,304,334.6,303.7,334.8,303z"/>
	<polyline class="st15_polaroid-69" points="305.2,196.3 309.9,194.4 305.9,170.5 292.3,176.6 293.9,187.8 295.9,199.3 305.2,196.3 303.7,194.5 &#10;&#9;&#9;&#9;"/>
	<path class="st9_polaroid-69" d="M329.5,177.6c-1.3,0.5-7,0.5-8.9,5.5c-1.3,3.8-2.4,7.6-3.3,11.5l-13.7-7.4c0,0-0.8,11.5,0.8,14.4&#10;&#9;&#9;s9.6,9.4,16.1,5.6c0,0-0.6,4.5,0,5.8s15.7,3,19.2-1.3s1.1-24.6,1.1-24.6"/>
	<path class="st12_polaroid-69" d="M303.8,193c0.2-1.6,0.3-3.3,0.5-4.9c-0.5-0.4-0.9-0.7-1.4-1.2c-0.5-0.5-0.9-1-1.3-1.5&#10;&#9;&#9;c-0.3-0.5-0.6-1.1-0.9-1.6l-0.4-0.7c-0.4-0.9-0.8-2.2-1.8-2.6c-0.7-0.3-1.5,0-1.8,0.7c0,0,0,0,0,0c0,0.1-0.1,0.2-0.1,0.3&#10;&#9;&#9;c-0.2,1.5,2.5,4.6-0.7,4.6c-0.6-0.1-1.2-0.1-1.8,0c-1.2,0.1-2.3,0.7-1.9,2c0.1,0.2,0.2,0.4,0.3,0.5c-0.8,0.2-1.2,1.1-1,1.9l0.1,0.2&#10;&#9;&#9;c0.2,0.5,0.5,0.8,1,1c-0.3,0.4-0.3,1,0,1.4c0.3,0.3,0.7,0.6,1.1,0.6c0,0.2,0,0.5,0.1,0.7c0.4,1,1.8,1.3,2.8,1.5&#10;&#9;&#9;c2.2,0.3,4.5,0.3,6.7,0.2C303.5,195,303.7,194,303.8,193z"/>
	<path class="st12_polaroid-69" d="M321.5,161.5c-0.9,0.5-0.8,13.4,3,15c5,2.1,9.1-3.6,9.5-6.6S331.4,155.5,321.5,161.5z"/>
	<path class="st7_polaroid-69" d="M348,182.3c-0.7-0.4-1.3-1-1.8-1.7c-0.3-0.9-0.4-1.8-0.3-2.7c-0.1-2.2-0.7-4.5-2.8-5.7&#10;&#9;&#9;c-1.4-0.8-3.3-0.1-4.4-1.3s-0.9-3.3-1-4.9c-0.9-8.4-14-10-18.1-3.1c-1.4,2.2-0.8,5.2,1.5,6.6c0,0,0,0,0,0l0,0&#10;&#9;&#9;c0.6,0.4,1.3,0.7,2.1,0.8c1.1,0.2,2.1,0.1,2.6,1.2c0.7,1.7-0.6,3.4-1.2,4.9c-1,2.3-1.4,5.6,1.1,7.3c1.2,0.6,2.5,1.1,3.8,1.3&#10;&#9;&#9;c0.6,0.1,1.1,0.4,1.5,0.8c0.6,0.8,0.2,1.8,0.1,2.7c-0.1,0.4-0.1,0.9,0,1.4c-0.2,0.9,0.1,1.8,0.7,2.4c1.4,1.6,4,1.7,6.1,1.6&#10;&#9;&#9;c2.4-0.1,4.7-0.7,6.9-1.6c1.9-0.8,4.3-2.1,5.3-3.9C351.2,186.1,349.8,183.8,348,182.3z"/>
	<path class="st16_polaroid-69" d="M325.8,193.7c0,2.6-0.5,5.2-1.3,7.7c-0.7,2.3-2.3,4.3-4.4,5.5c-0.2,0.1-0.2,0.3-0.1,0.5c0,0,0,0,0,0&#10;&#9;&#9;c0.1,0.2,0.3,0.2,0.5,0.1l0,0c2.1-1.2,3.7-3.1,4.5-5.4c1-2.7,1.5-5.6,1.5-8.5C326.6,193.2,325.8,193.2,325.8,193.7z"/>
</g>
<g id="plant_polaroid-69">
	
		<linearGradient id="SVGID_00000085955520987002982560000017003283769842690212_-polaroid-69" gradientUnits="userSpaceOnUse" x1="445.3148" y1="-643.3072" x2="420.7747" y2="-625.2571" gradientTransform="matrix(1 0 0 1 0 896.12)">
		<stop offset="0" style="stop-color:#633B14"/>
		<stop offset="1" style="stop-color:#E7D2CA"/>
	</linearGradient>
	<path style="fill:url(#SVGID_00000085955520987002982560000017003283769842690212_);" d="M442.9,248l-3.5,5.2L381,283.9l25.1,14.1&#10;&#9;&#9;l45.5-37.1C448.2,254.6,448.1,252.8,442.9,248z"/>
	<path class="st9_polaroid-69" d="M431.2,240.6l3.6,17c0.2,1.2,1,2.2,2,2.7c2.1,1,6.5,2.1,14.8,0.6c1.5-0.3,2.7-1.4,3.1-3l3.7-17.3"/>
	<ellipse class="st2_polaroid-69" cx="444.8" cy="240.6" rx="13.6" ry="5.6"/>
	<path class="st15_polaroid-69" d="M436.9,228c-0.6-0.3-1.2-0.9-1.6-1.5l-7.7-11.8c-3.6-5.5-4.9-44.9,4.5-45.4c7.4-0.4,15,16.9,17.6,21.9&#10;&#9;&#9;c2.7,4.7,5,9.7,6.7,14.9c2.2,7.8-2.8,14.6-7.6,20.8C446.5,229.9,439.9,229.7,436.9,228z"/>
	<path class="st2_polaroid-69" d="M441.4,235.8c1,0.7,2,1.5,3,2.3c0.8-17.6-1.7-35.2-7.2-51.9c-0.3-0.8-1.3-1.2-2.1-0.8c-0.7,0.3-1.1,1-0.9,1.8&#10;&#9;&#9;C439.5,202.8,441.9,219.3,441.4,235.8z"/>
	<path class="st11_polaroid-69" d="M452.3,224.9c-0.2-0.4-0.2-0.9-0.2-1.3l1-9c0.5-4.1,15.9-24.1,20.7-20.5c3.8,2.8,0.5,14.4-0.2,18&#10;&#9;&#9;c-0.6,3.4-1.5,6.8-2.8,10c-2.1,4.7-7.3,6-12.2,7.1C456.2,229.7,453.1,226.9,452.3,224.9z"/>
	<path class="st2_polaroid-69" d="M466.4,204.9c-6.9,11.6-12.3,23.9-16.3,36.8c0.8,0.4,1.5,0.9,2.2,1.4c4-12.9,9.5-25.4,16.4-37&#10;&#9;&#9;C469.5,204.7,467.3,203.5,466.4,204.9z"/>
</g>
</svg>