<svg version="1.1" id="Layer_1" xmlns="http://www.w3.org/2000/svg" xmlns:xlink="http://www.w3.org/1999/xlink" x="0px" y="0px" viewBox="0 0 500 500" style="width: 166px;" xml:space="preserve" data-imageid="user-group-44" imageName="User Group" class="illustrations_image">
<style type="text/css">
	.st0_user-group-44{fill:#C26558;}
	.st1_user-group-44{opacity:0.63;fill:url(#SVGID_1_);enable-background:new    ;}
	.st2_user-group-44{opacity:0.63;fill:url(#SVGID_00000140016833116780408250000005873150344063712416_);enable-background:new    ;}
	.st3_user-group-44{opacity:0.63;fill:url(#SVGID_00000002361724108750506550000010124958616729391802_);enable-background:new    ;}
	.st4_user-group-44{fill:#2B415D;}
	.st5_user-group-44{fill:#68E1FD;}
	.st6_user-group-44{fill:#4B1B13;}
	.st7_user-group-44{fill:#FFAC73;}
	.st8_user-group-44{fill:#E5894A;}
	.st9_user-group-44{fill:#17283A;}
	.st10_user-group-44{fill:#D4DEE8;}
</style>
<path id="Base_user-group-44" class="st0_user-group-44" d="M255.6,190c-65.6-8.8-156.9-3.1-198,57.9c-9.8,14.6-14.8,33-10.8,50c9.2,38.7,57.4,66.1,90.5,81.6&#10;&#9;c39.6,18.4,83.2,28.2,126.7,30.7c42.9,2.5,88.2,2.1,128.9-13.4c29.5-11.2,55.5-32.6,60.6-65.2c9.3-58.7-54.1-97.7-100.4-116.1&#10;&#9;C321.8,203.1,289.1,194.6,255.6,190z"/>
<g id="Shadow_user-group-44">
	
		<linearGradient id="SVGID_1_-user-group-44" gradientUnits="userSpaceOnUse" x1="-1102.7441" y1="128.2448" x2="-1052.1141" y2="171.9448" gradientTransform="matrix(-1 0 0 -1 -699.73 502)">
		<stop offset="0" style="stop-color:#C26558"/>
		<stop offset="1" style="stop-color:#D4145A"/>
	</linearGradient>
	<polyline class="st1_user-group-44" points="300.6,333.5 385.8,383.4 435.1,353.4 365.4,312.7 &#9;"/>
	
		<linearGradient id="SVGID_00000127764765314426256030000016816541822544675993_-user-group-44" gradientUnits="userSpaceOnUse" x1="-987.1009" y1="213.461" x2="-936.4809" y2="257.161" gradientTransform="matrix(-1 0 0 -1 -699.73 502)">
		<stop offset="0" style="stop-color:#C26558"/>
		<stop offset="1" style="stop-color:#D4145A"/>
	</linearGradient>
	
		<polyline style="opacity:0.63;fill:url(#SVGID_00000127764765314426256030000016816541822544675993_);enable-background:new    ;" points="&#10;&#9;&#9;185,248.2 270.1,298.2 319.5,268.2 249.8,227.5 &#9;"/>
	
		<linearGradient id="SVGID_00000032615106193090906240000012863917916670369700_-user-group-44" gradientUnits="userSpaceOnUse" x1="-956.3533" y1="112.1239" x2="-905.7333" y2="155.8239" gradientTransform="matrix(-1 0 0 -1 -699.73 502)">
		<stop offset="0" style="stop-color:#C26558"/>
		<stop offset="1" style="stop-color:#D4145A"/>
	</linearGradient>
	
		<polyline style="opacity:0.63;fill:url(#SVGID_00000032615106193090906240000012863917916670369700_);enable-background:new    ;" points="&#10;&#9;&#9;154.3,349.6 239.4,399.5 288.7,369.5 219,328.9 &#9;"/>
</g>
<g id="Character_2_user-group-44">
	<path class="st4_user-group-44" d="M265.3,241.8c0,0-1.6-25.2-2.2-31.5c-0.5-5.6-2.4-30.4-17.9-38.2c-19.6-9.9-42.2-22.7-63-16.8&#10;&#9;&#9;c-16.9,4.8-22.7,63.4-22.5,67.3C160,229.7,212.5,266.7,265.3,241.8z"/>
	<path class="st5_user-group-44 targetColor" d="M231.6,165.3c0,0,3.6,21.9-17.1,23.7c-14.5,1.2-11.2-10.5-11.2-10.5s-7.1,5.8-14.6,1.3s4.8-21.9,10.4-23.1&#10;&#9;&#9;S218.2,155.8,231.6,165.3z" style="fill: rgb(104, 225, 253);"/>
	<circle class="st6_user-group-44" cx="236.1" cy="110.1" r="16.3"/>
	<path class="st6_user-group-44" d="M189.6,123.7c-2.7-3.1-4-7.4-4.3-11.4c-0.2-2-0.1-4,0.3-6c0.6-2.3,2-3.5,3.9-4.8c1.4-0.9,2.7-2,3.8-3.2&#10;&#9;&#9;c0,0,42.7-8.3,47.6,16.6l0,0c0.9,7,0.4,28-18.7,36.8c-19.4,8.9-10.4-22.8-10.4-22.8"/>
	<path class="st7_user-group-44" d="M200,159.1l25.5-12.5l-2.1,17.7c0,0-0.2,0.3-0.5,0.9c-4.6,4.3-11.7,5.5-18.8,5.1c-1.6-0.1-2.8-1.3-3-2.9&#10;&#9;&#9;C200.8,164.6,200.4,161.9,200,159.1z"/>
	<path class="st7_user-group-44" d="M188.8,119c0,0-1.5-8.3,7.9-9.8c2.5-0.4,4.9-0.4,6.4,1.9c1.9,2.9,2.1,6.3,4.9,8.8c4.5,4.1,10,1.6,10,1.6&#10;&#9;&#9;c0.1,2.8-0.3,4.8-3.7,5.8S191.4,124.4,188.8,119z"/>
	<path class="st6_user-group-44" d="M222.5,111.1c-10.2-3.6-19.9-5.8-30.6-4.3c-1,0.1-1.7,0.8-1.8,1.8c-0.8-4.3-1.9-15.2,7-18.5&#10;&#9;&#9;c11-4.2,29.5,1.1,34.6,11c2.5,4.9,3.7,10.4,3.5,15.9C231.6,114.2,227,112.7,222.5,111.1z"/>
	<path class="st8_user-group-44" d="M200.6,163.7l0.4,3.7c0,0,17-0.5,19.3-14.3L200.6,163.7z"/>
	<path class="st7_user-group-44" d="M188.7,118.2c0,0,0.1,16.4,0,22.5c-0.1,6.4,6.3,23.2,13.2,23.2c10.6,0,21.4-12.8,21.4-15.6&#10;&#9;&#9;c0,0,10.7-6.6,4.6-11.7s-6.5,3.5-6.5,3.5s-3.3-4.8-3.5-17.5C217.9,122.5,202.9,124.9,188.7,118.2z"/>
	<path class="st9_user-group-44" d="M173.6,235.4c-1-0.6-1.9-1.3-2.8-2c0.4-12.8,2.1-25.5,5.1-37.9c0.5-2.2,3.9-1.2,3.3,0.9&#10;&#9;&#9;c-3.1,12.9-4.8,26-5.1,39.2C174,235.6,173.8,235.5,173.6,235.4z"/>
	<path class="st9_user-group-44" d="M238.6,249.7c-0.5,0-1,0.1-1.5,0.1l-1.3-43.7c-0.1-2.2,3.4-2.2,3.5,0l1.3,43.4&#10;&#9;&#9;C239.9,249.5,239.3,249.6,238.6,249.7z"/>
	<path class="st6_user-group-44" d="M226,152.1c0,0-6.1-5.5-7.5-13.7s9.6-4.5,11.4-0.9S231,150.2,226,152.1z"/>
</g>
<g id="Character_3_user-group-44">
	<path class="st4_user-group-44" d="M388.6,337.6c0,0-1.6-26-2.2-32.4c-0.5-5.8-2.5-31.3-18.4-39.4c-20.2-10.2-43.4-23.4-64.9-17.3&#10;&#9;&#9;c-17.4,5-23.4,65.3-23.2,69.3C280.2,325.1,334.2,363.3,388.6,337.6z"/>
	<path class="st5_user-group-44 targetColor" d="M347.4,269c0,1.4-1.6,3.4-2.2,4.6c-5.2,9.9-9.7,20.3-14.7,30.3c-4.8,9.9-5.7,37.5-6.3,39.3&#10;&#9;&#9;c0,0.2-19.8-7.2-20-7.1s-1.6-14.3-1.6-15.2c-0.2-15.8-1.4-23.8,1.5-36c2-8.6,5.8-14.5,7.8-23.1c1-4.1,1.6-9,3.7-12.8&#10;&#9;&#9;C317.8,245,347.4,259.7,347.4,269z" style="fill: rgb(104, 225, 253);"/>
	<path class="st9_user-group-44" d="M356.3,346.2c-0.5,0-1.1,0.1-1.6,0.1c0.2-10.9,0.2-21.7,0.1-32.6c0-2.3,3.5-2.3,3.6,0&#10;&#9;&#9;c0.1,10.8,0.1,21.6-0.1,32.3C357.6,346.1,356.9,346.2,356.3,346.2z"/>
	<path class="st9_user-group-44" d="M297.4,332.6L297.4,332.6c-0.1-0.1-0.2-0.1-0.4-0.2l-1-0.5c-0.4-0.2-0.8-0.4-1.1-0.6l-1-0.5&#10;&#9;&#9;c0-12.9,0.4-25.8,1.1-38.7c0.1-2.3,3.7-2.3,3.6,0c-0.7,13.3-1.1,26.5-1.1,39.9C297.5,332.2,297.5,332.4,297.4,332.6z"/>
	<path class="st4_user-group-44" d="M315.5,249.1c0,0-3.9,26.4-1.7,29.1l9-7.1l5.4,11.2l22.5-19.5L315.5,249.1z"/>
	<path class="st7_user-group-44" d="M311.6,208.6c0,0,0.1,16.9,0,23.1c-0.1,6.6,2.7,24.4,13.6,23.9s22-13.2,22-16.1c0,0,11-6.8,4.8-12.1&#10;&#9;&#9;s-6.7,3.6-6.7,3.6s-3.4-4.9-3.6-18C341.6,213,326.1,215.5,311.6,208.6z"/>
	<path class="st7_user-group-44" d="M346.6,257c-5.5,5.1-14.5,6.1-22.9,4.9c-1.3-0.1-2.3-1.1-2.5-2.4c-0.1-2.5-0.3-5.1-0.5-7.6l28.6-14l-2.2,18.3&#10;&#9;&#9;C347.2,256.1,347,256.5,346.6,257z"/>
	<path class="st8_user-group-44" d="M327,262.2c-1.1-0.1-2.2-0.2-3.3-0.4c-1.2-0.1-2.3-1-2.4-2.3c-0.1-1.3-0.1-2.7-0.2-4c6.1,0,16.9-1.4,22.6-12.7&#10;&#9;&#9;C342.1,251.9,335.7,259.4,327,262.2z"/>
	<path class="st6_user-group-44" d="M384,255.6c-10.1-11.2-15-33.5-15-33.5l-0.1,0.1c-2.9-24.5-20.3-31.9-35.6-32.8c-15.5-0.9-26.9,4.9-27.7,15.2&#10;&#9;&#9;s6.1,14.6,6.1,14.6s25.9,7.5,27.6,4.3s2-18,3.6,1.4c0.5,6.4,0.4,12.8,0.3,19.2c0,7.8,0.7,15.6,2,23.3c0.9,5.8,1.8,12.2,7.4,15.3&#10;&#9;&#9;c8.5,4.8,20.7,4.8,29.1-0.4c0,0,4.9,22.9,6.3,43.5c0,0,17.8-1.1,19.9-27.6S394.1,266.8,384,255.6z"/>
</g>
<g id="Character_1_user-group-44">
	<path class="st5_user-group-44 targetColor" d="M238.3,354.6c0,0-1.6-26-2.2-32.4c-0.6-5.8-2.5-31.3-18.4-39.4c-20.2-10.2-43.4-23.4-64.9-17.2&#10;&#9;&#9;c-17.4,5-23.4,65.3-23.2,69.3C129.9,342,183.9,380.2,238.3,354.6z" style="fill: rgb(104, 225, 253);"/>
	<path class="st6_user-group-44" d="M162.1,231.2c0,0-4.3-3.5-6.8-11.6s1.7-19.8,10.4-20.9s11.4,3.4,11.4,3.4s32.7-5.8,37.7,19.9l0,0&#10;&#9;&#9;c0.9,7.2,4.9,33.2-16.4,38.9S185,236.4,185,236.4"/>
	<path class="st7_user-group-44" d="M161.2,225.5c0,0,0.1,16.9,0,23.1c-0.1,6.6,2.7,24.5,13.6,23.9s22-13.2,22-16.1c0,0,11-6.8,4.8-12.1&#10;&#9;&#9;s-6.7,3.6-6.7,3.6s-3.4-4.9-3.6-18C191.3,230,175.8,232.4,161.2,225.5z"/>
	<path class="st7_user-group-44" d="M196.3,273.9c-5.6,5.1-14.6,6.1-22.9,4.9c-1.3-0.1-2.3-1.1-2.5-2.4c-0.1-2.6-0.3-5.1-0.5-7.7l28.6-14&#10;&#9;&#9;l-2.2,18.3C196.8,273.1,196.6,273.4,196.3,273.9z"/>
	<path class="st8_user-group-44" d="M176.6,279.1c-1.1-0.1-2.2-0.2-3.3-0.4c-1.2-0.1-2.3-1-2.4-2.3c-0.1-1.3-0.1-2.7-0.2-4&#10;&#9;&#9;c6.1,0,16.9-1.4,22.6-12.7C191.7,268.9,185.3,276.3,176.6,279.1z"/>
	<path class="st10_user-group-44" d="M199,268.1c-2.3,1.5-4.7,3-7.1,4.4c-3.4,2.1-7,3.8-10.7,5.2c-3.1,1.1-8.5,2.6-10.4-1.3&#10;&#9;&#9;c-0.2-0.7-0.2-1.4-0.1-2.1c0-0.9,0-1.7-0.1-2.6l-0.1,0c-1.4-0.5-2.7-1.5-3.6-2.7c-0.1-0.1-0.1-0.2-0.1-0.3l0,0&#10;&#9;&#9;c0,0-7.5,21.5-6.3,22.6s10.2-4.2,10.2-4.2s3.9,7.9,5.4,8.7s21.4-16.6,24-21.6L199,268.1z"/>
	<path class="st9_user-group-44" d="M163,290.2c-0.4,0.2-1.4,4.8,0,9.1c0,0,3.7,1.7,4.4,1.4s6.8-7.1,6.5-7.5s-3.7-6.7-3.7-6.7L163,290.2z"/>
	<path class="st9_user-group-44" d="M163,299.3c0,0-13.2,51.6-12.4,52s12.4,6.4,16.5,6.6l0.3-57.3"/>
	<path class="st6_user-group-44" d="M163.6,251.5c-3.3,0-6.1-3.6-6.1-8.1s2.7-8.1,6.1-8.1s6.1,3.6,6.1,8.1S167,251.5,163.6,251.5z M163.6,236&#10;&#9;&#9;c-2.9,0-5.3,3.3-5.3,7.4s2.4,7.4,5.3,7.4s5.3-3.3,5.3-7.4S166.6,236,163.6,236L163.6,236z"/>
	<path class="st6_user-group-44" d="M179.6,255.2c-3.7,0-6.7-3.6-6.7-8.1s3-8.1,6.7-8.1s6.7,3.6,6.7,8.1S183.3,255.2,179.6,255.2z M179.6,239.7&#10;&#9;&#9;c-3.3,0-5.9,3.3-5.9,7.3s2.6,7.4,5.9,7.4s5.9-3.3,5.9-7.4S182.9,239.7,179.6,239.7z"/>
	<rect x="170.9" y="243.5" transform="matrix(0.14 -0.9901 0.9901 0.14 -95.7876 380.7877)" class="st6_user-group-44" width="0.8" height="4"/>
	
		<rect x="185.8" y="245.6" transform="matrix(0.9702 -0.2423 0.2423 0.9702 -53.911 53.4513)" class="st6_user-group-44" width="9.2" height="0.8"/>
</g>
</svg>