<svg version="1.1" id="Layer_1" xmlns="http://www.w3.org/2000/svg" xmlns:xlink="http://www.w3.org/1999/xlink" x="0px" y="0px" viewBox="0 0 500 500" style="width: 166px;" xml:space="preserve" data-imageid="customer-service-1-5" imageName="Customer Service 1" class="illustrations_image">
<style type="text/css">
	.st0_customer-service-1-5{fill:#CB9BEA;}
	.st1_customer-service-1-5{fill:#0071BC;}
	.st2_customer-service-1-5{fill:#4B1B13;}
	.st3_customer-service-1-5{fill:#ED1C24;}
	.st4_customer-service-1-5{fill:#2B415D;}
	.st5_customer-service-1-5{opacity:0.5;fill:#F2F2F2;enable-background:new    ;}
	.st6_customer-service-1-5{fill:#68E1FD;}
	.st7_customer-service-1-5{opacity:0.2;fill:#4B1B13;enable-background:new    ;}
	.st8_customer-service-1-5{fill:#FFAC73;}
	.st9_customer-service-1-5{opacity:0.5;fill:#2B415D;enable-background:new    ;}
	.st10_customer-service-1-5{fill:#F2F2F2;}
	.st11_customer-service-1-5{fill:#FFCD5E;}
	.st12_customer-service-1-5{opacity:0.2;fill:#2B415D;enable-background:new    ;}
</style>
<path id="field_customer-service-1-5" class="st0_customer-service-1-5" d="M243.1,407.8L24.6,278.7c-7-3.9-12.9-10.3-6.1-14.5l219.2-126.4c3.3-2,8.3-3.4,11.6-1.4l229.3,133.1&#10;&#9;c7,4,8.2,15.3,1.2,19.4l-208,118.8C263,412.8,252,412.9,243.1,407.8z"/>
<g id="plant_customer-service-1-5">
	<path class="st1_customer-service-1-5" d="M400.2,244.9c0,0-2.7,31.6,14.2,37.2s25.3-10.6,24.7-38.5"/>
	
		<ellipse transform="matrix(0.9995 -3.175965e-02 3.175965e-02 0.9995 -7.5481 13.4505)" class="st2_customer-service-1-5" cx="419.6" cy="244.3" rx="19.5" ry="11.2"/>
	<path class="st3_customer-service-1-5" d="M423.8,219.1c0,0-8-10.8-4.9-18.5c0,0,2.6-5,6.5-5.9c0,0-0.1,10.5,3.8,9s-0.4-10.9-0.4-10.9s3.9-5.7,8.4-5.6&#10;&#9;&#9;s0.3,9.8,3.4,8.1s-0.1-9.8,3.4-10.8c3.2-0.8,6.4-1.5,9.7-1.9c0,0,3.6,9.4,0.4,10.9s-8.1,2.1-5.7,4.1s8.9-0.6,8.9-0.6&#10;&#9;&#9;s0.6,5.4-1.6,7.7s-15.6-2.3-13.1,2.2s11.2,1.9,11.2,1.9s-4.3,6.5-9.4,9.6S423.8,219.1,423.8,219.1z"/>
	<path class="st3_customer-service-1-5" d="M426.5,246.7c0,0-5.7-5.3-4.8-10c0,0,0.9-3.1,3-4c0,0,1.1,5.9,3.1,4.7s-1.4-6.2-1.4-6.2s1.6-3.6,4.2-4.1&#10;&#9;&#9;s1.2,5.5,2.8,4.2s-1.1-5.5,0.8-6.5c1.7-0.8,3.5-1.5,5.3-2.1c0,0,3.1,5,1.4,6.1s-4.4,2-2.8,2.9s5-1.3,5-1.3s0.9,3-0.1,4.6&#10;&#9;&#9;s-9.1,0.3-7.2,2.6s6.5-0.1,6.5-0.1c-1,2.4-2.5,4.6-4.3,6.5C435.4,246.4,426.5,246.7,426.5,246.7z"/>
	<path class="st3_customer-service-1-5" d="M405.8,235.6c0,0-13.4,0.9-18.2-5.8c0,0-2.8-4.9-1.5-8.6c0,0,8.8,5.7,9.6,1.6s-9.4-5.6-9.4-5.6&#10;&#9;&#9;s-2.7-6.3-0.2-10.1s8.4,5,8.6,1.5s-8.3-5.1-7.3-8.6c1-3.1,2.2-6.2,3.6-9.2c0,0,9.9,2,9.4,5.6s-2.6,8,0.4,7s4.3-7.9,4.3-7.9&#10;&#9;&#9;s4.8,2.4,5.7,5.5s-10.3,11.9-5.2,12.2s7.6-8.4,7.6-8.4s3.2,7.1,3,13.1S405.8,235.6,405.8,235.6z"/>
	<path class="st2_customer-service-1-5" d="M450.9,186.9c-1.4,1.2-2.8,2.5-4.2,3.8c0.1-1.5,0.2-3,0.4-4.6c0.1-0.8-1.1-1.1-1.2-0.3c-0.3,2-0.4,4.1-0.5,6.1&#10;&#9;&#9;c-3.6,3.4-7.3,7-10.6,10.7c-0.4-2.6-0.5-5.1-0.5-7.7c0-0.8-1.2-0.8-1.3,0c-0.1,3,0.2,6,0.7,8.9c-2.1,2.5-4.1,5-6,7.7&#10;&#9;&#9;c-2.3-2.9-3.9-6.4-4.6-10c-0.2-0.8-1.4-0.4-1.2,0.4c0.8,3.9,2.6,7.5,5,10.6l0.1,0.1c-5.3,8.1-8.9,17-8.9,27.3&#10;&#9;&#9;c0,0.3,0.3,0.6,0.6,0.6s0.6-0.3,0.6-0.6c0-9.9,3.4-18.6,8.5-26.4c5.2,1.2,10.5,1.5,15.7,1c0.8-0.1,0.8-1.3,0-1.3&#10;&#9;&#9;c-5,0.5-10,0.2-14.9-0.9c2.6-3.7,5.4-7.2,8.5-10.4c0,0,0.1,0,0.1,0c3,0.2,5.9,0.3,8.9,0.4c1.9,0,3.8,0.1,5.5-0.8&#10;&#9;&#9;c0.7-0.4,0-1.5-0.7-1.1c-2,1.1-4.9,0.6-7.1,0.6c-1.9,0-3.8-0.1-5.6-0.3c4.4-4.6,9.1-8.9,13.6-13&#10;&#9;&#9;C452.4,187.2,451.5,186.4,450.9,186.9z"/>
	<path class="st2_customer-service-1-5" d="M412.4,212.8c0.1-0.3-0.1-0.7-0.5-0.8c-0.3-0.1-0.7,0.1-0.8,0.5c-1.2,4.7-3.9,8.9-7.8,11.9&#10;&#9;&#9;c-1.6-3.9-3-7.9-4.3-11.9c3-3.1,5.3-6.8,7.1-10.7c0.3-0.7-0.8-1.4-1.1-0.6c-1.6,3.6-3.8,7-6.4,9.9c-1.5-4.6-2.8-9.3-3.9-14&#10;&#9;&#9;c-0.2-0.8-1.4-0.4-1.2,0.4c1.6,6.5,3.4,12.8,5.6,19.1c-2.4-0.4-4.8-1-7-2c-0.7-0.3-1.4,0.8-0.6,1.1c2.6,1.1,5.3,1.9,8.1,2.3l0,0&#10;&#9;&#9;c1.5,4.1,3.1,8.2,4.8,12.2c-3.8,0-7.5-0.8-11.1-2.2c-0.8-0.3-1.4,0.8-0.6,1.1c3.9,1.5,8.1,2.3,12.3,2.2c2.2,5,4.6,9.9,7.2,14.8&#10;&#9;&#9;c0.4,0.7,1.5,0,1.1-0.7c-3.5-6.4-6.6-13-9.3-19.8l0,0C408.1,222.4,411.1,217.9,412.4,212.8z"/>
	<path class="st2_customer-service-1-5" d="M435.9,228.4l-3.3,6c-0.4-0.6-0.8-1.2-1.2-1.8c-0.4-0.7-1.4,0-1.1,0.7c0.4,0.8,0.9,1.6,1.5,2.3l0,0l-3.5,6.4&#10;&#9;&#9;c-0.4-0.4-0.7-0.9-0.8-1.5c-0.1-0.8-1.4-0.8-1.3,0c0.1,1,0.7,1.9,1.5,2.6l-4.5,8.1c-0.1,0.3,0,0.7,0.4,0.8c0.3,0.1,0.6,0,0.8-0.2&#10;&#9;&#9;l5.9-10.6c1,0,2.1-0.2,3.1-0.6c0.8-0.3,0.4-1.5-0.4-1.2c-0.6,0.2-1.3,0.4-2,0.4l6-10.8c0.2-0.3,0-0.7-0.3-0.9&#10;&#9;&#9;S436,228.1,435.9,228.4z"/>
</g>
<g id="cs_customer-service-1-5">
	
		<ellipse transform="matrix(0.2583 -0.9661 0.9661 0.2583 -17.1157 376.6149)" class="st4_customer-service-1-5" cx="236.7" cy="199.5" rx="14.5" ry="10.5"/>
	
		<ellipse transform="matrix(0.2583 -0.9661 0.9661 0.2583 -17.1157 376.6149)" class="st5_customer-service-1-5" cx="236.7" cy="199.5" rx="14.5" ry="10.5"/>
	<path class="st4_customer-service-1-5" d="M315.6,320.2c0,0-1.8-28.2-2.4-35.2c-0.6-6.3-2.7-34.1-20.1-42.8c-21.9-11.1-47.2-25.5-70.6-18.8&#10;&#9;&#9;c-18.9,5.4-25.4,71-25.2,75.3C197.8,306.6,256.5,348.1,315.6,320.2z"/>
	<path class="st6_customer-service-1-5 targetColor" d="M270.8,245.6c0,1.5-1.7,3.7-2.4,5c-5.6,10.7-10.6,22.1-15.9,33c-5.3,10.7-6.2,40.8-6.9,42.7&#10;&#9;&#9;c-0.1,0.2-21.5-7.8-21.7-7.7s-1.8-15.5-1.8-16.5c-0.2-17.1-1.5-25.9,1.6-39.1c2.2-9.4,6.3-15.7,8.5-25.1c1-4.5,1.7-9.8,4-13.9&#10;&#9;&#9;C238.7,219.4,270.8,235.5,270.8,245.6z" style="fill: rgb(104, 225, 253);"/>
	<path class="st7_customer-service-1-5" d="M280.4,329.6c-0.6,0-1.2,0.1-1.8,0.1c0.2-11.8,0.2-23.6,0.1-35.4c0-2.5,3.9-2.5,3.9,0&#10;&#9;&#9;c0.1,11.7,0.1,23.4-0.1,35.2L280.4,329.6z"/>
	<path class="st7_customer-service-1-5" d="M216.4,314.8L216.4,314.8c-0.1-0.1-0.3-0.1-0.4-0.2l-1-0.6c-0.4-0.2-0.8-0.5-1.2-0.7l-1-0.6&#10;&#9;&#9;c0.1-14,0.5-28,1.2-42c0.1-2.5,4-2.5,3.9,0c-0.8,14.4-1.2,28.9-1.3,43.3C216.6,314.3,216.6,314.6,216.4,314.8z"/>
	<path class="st4_customer-service-1-5" d="M236.2,224c0,0-4.2,28.7-1.8,31.6l9.8-7.7l5.8,12.2l24.4-21.2L236.2,224z"/>
	<path class="st8_customer-service-1-5" d="M231.9,179.9c0,0,0.1,18.3,0,25.2c-0.1,7.2,2.9,26.6,14.8,26c11.8-0.6,23.9-14.4,23.9-17.5&#10;&#9;&#9;c0,0,11.9-7.4,5.2-13.1s-7.3,4-7.3,4s-3.7-5.3-3.9-19.6C264.5,184.7,247.7,187.4,231.9,179.9z"/>
	<path class="st8_customer-service-1-5" d="M270,232.6c-6,5.6-15.8,6.6-24.9,5.3c-1.4-0.1-2.5-1.2-2.7-2.6c-0.1-2.8-0.3-5.6-0.6-8.3l31.2-15.2l-2.4,19.9&#10;&#9;&#9;C270.6,231.6,270.4,232,270,232.6z"/>
	<path class="st9_customer-service-1-5" d="M248.6,238.2c-1.2-0.1-2.4-0.2-3.6-0.4c-1.4-0.1-2.4-1.1-2.6-2.5c-0.1-1.4-0.1-2.9-0.2-4.3&#10;&#9;&#9;c6.6,0.1,18.3-1.6,24.5-13.8C265,227,258.1,235.1,248.6,238.2z"/>
	<path class="st2_customer-service-1-5" d="M310.6,231c-11-12.2-16.3-36.4-16.3-36.4l-0.1,0.1c-3.1-26.6-22.1-34.7-38.7-35.6c-16.9-1-29.2,5.4-30.1,16.5&#10;&#9;&#9;s6.6,15.9,6.6,15.9s28.1,8.1,30,4.7s2.2-19.6,3.9,1.5c0.5,7,0.4,13.9,0.4,20.9c0,8.5,0.7,17,2.1,25.4c1,6.3,2,13.2,8,16.7&#10;&#9;&#9;c9.2,5.2,22.5,5.2,31.6-0.4c0,0,5.3,24.9,6.9,47.3c0,0,19.4-1.2,21.6-30.1S321.6,243.2,310.6,231z"/>
	<path class="st4_customer-service-1-5" d="M273,193.5c0,0,6.3-20.1-7.9-29c-13-8.2-23-4.5-23-4.5s8.2-7.3,23-2.6s18.9,19.2,15.8,37"/>
	<path class="st5_customer-service-1-5" d="M273,193.5c0,0,6.3-20.1-7.9-29c-13-8.2-23-4.5-23-4.5s8.2-7.3,23-2.6s18.9,19.2,15.8,37"/>
	<path class="st4_customer-service-1-5" d="M267.6,212.3c-2.1,3.6-4.3,7.2-8.4,8.8c-2.8,1-5.7,1.3-8.6,1.1c-0.3-2-2.1-3.4-4.1-3.1&#10;&#9;&#9;c-0.6,0.1-1.2,0.3-1.7,0.7c-0.4,0.1-0.7,0.3-0.9,0.6c-1.2,1.7-0.9,4.1,0.8,5.4c0.6,0.4,1.3,0.7,2.1,0.7c1.3,0,2.6-0.7,3.3-1.8&#10;&#9;&#9;c3.7,0.1,7.5,0,10.9-1.6c4.1-1.9,6.6-5.7,8.8-9.5c0.3-0.6,0.1-1.4-0.5-1.7C268.6,211.6,267.9,211.8,267.6,212.3z"/>
	<path class="st4_customer-service-1-5" d="M281.4,192.2c-0.9-0.8-2-1.4-3.1-1.7c-5.6-1.5-11.8,3.6-13.9,11.3s0.8,15.2,6.4,16.7h0.2&#10;&#9;&#9;c0.7,0.2,1.5,0.2,2.2,0.2c3.8,0.1,11-1.1,14.2-10.3C290.3,199.9,285.1,194.7,281.4,192.2z"/>
	<path class="st5_customer-service-1-5" d="M281.4,192.2c-0.9-0.8-2-1.4-3.1-1.7c-5.6-1.5-11.8,3.6-13.9,11.3s0.8,15.2,6.4,16.7h0.2&#10;&#9;&#9;c0.7,0.2,1.5,0.2,2.2,0.2c3.8,0.1,11-1.1,14.2-10.3C290.3,199.9,285.1,194.7,281.4,192.2z"/>
	<ellipse transform="matrix(0.4359 -0.9 0.9 0.4359 -28.4547 367.1982)" class="st4_customer-service-1-5" cx="278.7" cy="206.3" rx="7.1" ry="5.5"/>
</g>
<g id="chat_customer-service-1-5">
	<path class="st6_customer-service-1-5 targetColor" d="M210.9,146.3L130.1,100c-1.6-0.9-3.7-0.4-4.6,1.3c-0.3,0.5-0.5,1.1-0.4,1.7v29.9c0,3,1.6,5.7,4.2,7.1&#10;&#9;&#9;l78.4,43.9c1.6,0.9,3.7,0.3,4.6-1.3c0.3-0.5,0.4-1.1,0.4-1.7v-31.6C212.6,148,212,146.9,210.9,146.3z" style="fill: rgb(104, 225, 253);"/>
	<polyline class="st6_customer-service-1-5 targetColor" points="205.2,177.4 205.2,194.9 190.6,173.1 &#9;" style="fill: rgb(104, 225, 253);"/>
	<path class="st10_customer-service-1-5" d="M134.9,117l14.5,8.1l23.1,12.9l5.3,3c1.7,0.9,3.2-1.6,1.5-2.6l-14.5-8.1l-23.1-12.9l-5.3-3&#10;&#9;&#9;C134.7,113.5,133.2,116.1,134.9,117L134.9,117z"/>
	<path class="st10_customer-service-1-5" d="M133,129l21.9,12.2l34.9,19.5l8,4.5c1.7,0.9,3.2-1.6,1.5-2.6l-21.9-12.2l-34.9-19.5l-8-4.5&#10;&#9;&#9;C132.8,125.5,131.3,128.1,133,129L133,129z"/>
</g>
<g id="message_customer-service-1-5">
	<path class="st11_customer-service-1-5" d="M163.9,273.4l2.3-1.2v-30c0,0-19.9-34.7-20.4-34.3S122,219.6,122,219.6v27.2"/>
	<path class="st12_customer-service-1-5" d="M163.9,273.4l2.3-1.2v-30c0,0-19.9-34.7-20.4-34.3S122,219.6,122,219.6v27.2"/>
	<polygon class="st11_customer-service-1-5" points="122,219.6 122,249.8 136.1,243.9 &#9;"/>
	<path class="st11_customer-service-1-5" d="M166.2,272.1v-30l-19.2,9l16.9,22.3C164,273.3,166.1,272.2,166.2,272.1z"/>
	<polygon class="st11_customer-service-1-5" points="122,249.8 163.9,273.4 147,251.1 136.1,243.9 &#9;"/>
	<polygon class="st5_customer-service-1-5" points="122,249.8 163.9,273.4 147,251.1 136.1,243.9 &#9;"/>
	<polygon class="st10_customer-service-1-5" points="125.1,224.9 125.1,207.8 161.4,227.4 161.4,245 147,251.1 136.1,243.9 &#9;"/>
	<path class="st4_customer-service-1-5" d="M150.1,231.5c0.5,1.4,0.7,2.9,0.6,4.4c0,0.9-0.2,1.8-0.6,2.7c-0.3,0.6-0.8,1.1-1.5,1.4&#10;&#9;&#9;c-0.6,0.2-1.3,0.1-1.9-0.2c-0.6-0.3-1-0.7-1.4-1.2c-0.4-0.6-0.5-1.2-0.6-1.9c-0.2,0.5-0.7,0.8-1.2,1c-0.6,0.1-1.1,0-1.6-0.3&#10;&#9;&#9;c-0.6-0.3-1-0.7-1.4-1.2c-0.4-0.6-0.7-1.2-0.9-1.8c-0.2-0.7-0.3-1.4-0.3-2.2c0-0.2,0-0.4,0-0.5c0.1-0.8,0.3-1.5,0.7-2.2&#10;&#9;&#9;c0.4-0.5,0.9-0.9,1.5-1c0.7-0.1,1.4,0.1,2,0.4c1,0.5,1.8,1.2,2.3,2.1c0.5,0.9,0.8,1.9,0.7,3c0,0.2,0,0.5-0.1,0.7l-0.3,1.6&#10;&#9;&#9;c0,0.2,0,0.3-0.1,0.4c0,0.3,0,0.5,0.1,0.8c0.1,0.2,0.3,0.3,0.5,0.4c0.3,0.2,0.6,0.2,0.9,0c0.3-0.2,0.6-0.5,0.7-0.9&#10;&#9;&#9;c0.2-0.6,0.3-1.2,0.3-1.9c0.1-1.1-0.1-2.2-0.5-3.3c-0.4-1.1-0.9-2-1.6-2.9c-0.8-0.9-1.7-1.6-2.8-2.2c-1-0.6-2.2-0.8-3.4-0.7&#10;&#9;&#9;c-0.9,0.2-1.8,0.8-2.2,1.6c-0.6,1.1-0.9,2.3-0.9,3.5c-0.1,1.8,0.3,3.6,1.2,5.2c0.9,1.6,2.3,2.9,4,3.7l-0.4,1.7&#10;&#9;&#9;c-1.4-0.7-2.7-1.7-3.7-2.9c-1-1.2-1.8-2.5-2.2-3.9c-0.5-1.5-0.7-3.1-0.6-4.7c0-1.5,0.4-3.1,1.3-4.4c0.7-1,1.9-1.7,3.1-1.8&#10;&#9;&#9;c1.5-0.1,2.9,0.3,4.2,1c1.3,0.7,2.5,1.6,3.5,2.7C148.8,228.9,149.6,230.2,150.1,231.5z M144.5,235.2c0.2-0.5,0.4-1,0.4-1.6&#10;&#9;&#9;c0-0.6-0.1-1.2-0.4-1.8c-0.3-0.5-0.7-0.9-1.2-1.1c-0.3-0.2-0.7-0.2-1-0.2c-0.3,0.1-0.6,0.4-0.8,0.7c-0.5,1.1-0.5,2.3,0,3.3&#10;&#9;&#9;c0.2,0.5,0.6,0.9,1.1,1.1c0.3,0.2,0.7,0.2,1,0.2C144,235.7,144.3,235.5,144.5,235.2"/>
</g>
<g id="_24_7_customer-service-1-5">
	<path class="st3_customer-service-1-5" d="M339,116.2c1.3,0.6,2.4,1.5,3.2,2.7c0.7,1.1,1.1,2.5,1,3.8c0,1-0.3,2.1-1,2.9c-0.6,0.8-1.4,1.5-2.2,2.1&#10;&#9;&#9;c-0.9,0.5-1.8,0.9-2.8,1.2l6,2.7l-0.1,2.5l-9.6-4.3l0.1-2.3c4.5-1.5,6.8-3.4,6.8-5.7c0-0.6-0.1-1.3-0.4-1.8c-0.3-0.5-0.8-1-1.3-1.2&#10;&#9;&#9;c-1.3-0.6-2,0.1-2.1,2.1l-2.6-1.2c0.1-1.8,0.7-3,1.6-3.5C336.6,115.5,337.9,115.5,339,116.2z"/>
	<polygon class="st3_customer-service-1-5" points="373.6,131.8 373.5,134.1 368.1,145.3 365.3,144 370.8,133.2 364.4,130.4 364.5,127.8 &#9;"/>
	<path class="st1_customer-service-1-5" d="M357.5,95.2c16.2,8.9,28.5,30.2,27.9,49.2c-0.7,20-15.5,29.9-33.1,22.1S321,136,321.7,115.9&#10;&#9;&#9;c0.3-9,3.5-15.9,8.4-20.1l3.5,5.2c-4.2,3.6-6.9,9.5-7.1,17.1c-0.6,17,11.1,36.3,26,42.9s27.5-1.8,28.1-18.8&#10;&#9;&#9;c0.5-16-9.7-33.9-23.3-41.5L357.5,95.2z"/>
	<polygon class="st1_customer-service-1-5" points="341.5,90 339.8,110.3 333.6,101 330.1,95.8 323.6,86.1 &#9;"/>
	<g>
		<path class="st3_customer-service-1-5" d="M354.1,133.1l1.8,0.8l-0.1,2.7l-1.8-0.8l-0.1,3.1l-2.7-1.2l0.1-3.1l-6.7-3l0.1-2.6l6.9-7.1l2.9,1.3&#10;&#9;&#9;&#9;L354.1,133.1z M351.5,132l0.2-6.3l-4.4,4.4L351.5,132"/>
		<polygon class="st3_customer-service-1-5" points="364.7,122.6 358.6,145.1 356,143.9 362,121.4 &#9;&#9;"/>
	</g>
</g>
</svg>